<svg xmlns="http://www.w3.org/2000/svg" version="1.1" xmlns:xlink="http://www.w3.org/1999/xlink" xmlns:svgjs="http://svgjs.dev/svgjs" width="100%" height="100%" viewBox="0 0 1000 600"><rect width="1000" height="600" x="0" y="0" fill="#8da9c4"/><g><circle r="166.66666666666666" cx="366.02038065592444" cy="388.24265530626974" fill="#243665" transform="matrix(0.6270259833076784,0,0,0.6270259833076786,0,56.56175710146674)"/><path d="M321.84954531406527 313.2426728725029L340.72391717336177 313.2426728725029L340.72391717336177 432.639657797126Q340.72391717336177 440.02659247049286 344.3118568718542 443.4939291539099Q347.89979657034667 446.961265837327 355.2867312437135 446.961265837327L355.2867312437135 446.961265837327L409.34703275125116 446.961265837327L410.1912538567788 461.73513518406065Q396.0807010929597 462.82056231973905 381.42743476130147 463.03161759612095Q366.77416842964317 463.24267287250285 352.24150511306027 463.24267287250285L352.24150511306027 463.24267287250285Q335.74904280150247 463.24267287250285 328.78421868089947 455.2225723699903Q321.84954531406527 447.17232111370896 321.84954531406527 435.0215673448647L321.84954531406527 435.0215673448647L321.84954531406527 313.2426728725029Z " fill="#8da9c4" transform="matrix(0.6270259833076784,0,0,0.6270259833076786,0,56.56175710146674)"/><path d="M616.0203978939198 315.22484597571736L630.4487933084991 315.22484597571736L630.4487933084991 406.4971236781677Q630.4487933084991 412.14401964713244 633.1915713505678 414.79460346929955Q635.9343493926362 417.44518729146665 641.5812453616011 417.44518729146665L641.5812453616011 417.44518729146665L682.9073044324327 417.44518729146665L683.552663971743 428.73897922939614Q672.7659402432716 429.5687272085093 661.5643425252435 429.7300670933369Q650.3627448072157 429.89140697816447 639.2533413090891 429.89140697816447L639.2533413090891 429.89140697816447Q626.6457817375638 429.89140697816447 621.3215655382542 423.76049135471703Q616.0203978939198 417.60652717629426 616.0203978939198 408.31795952122167L616.0203978939198 408.31795952122167L616.0203978939198 315.22484597571736ZM700.8160316482923 348.9218333497028L714.7604074083889 348.9218333497028L714.7604074083889 429.7300670933369L700.8160316482923 429.7300670933369L700.8160316482923 348.9218333497028ZM704.4807518893756 314.55643788143175L711.118735722281 314.55643788143175Q715.4288155026745 314.55643788143175 715.4288155026745 318.86651766182524L715.4288155026745 318.86651766182524L715.4288155026745 328.3394737567008Q715.4288155026745 332.6495535370943 711.118735722281 332.6495535370943L711.118735722281 332.6495535370943L704.4807518893756 332.6495535370943Q700.1476235540067 332.6495535370943 700.1476235540067 328.3394737567008L700.1476235540067 328.3394737567008L700.1476235540067 318.86651766182524Q700.1476235540067 314.55643788143175 704.4807518893756 314.55643788143175L704.4807518893756 314.55643788143175ZM784.7819174235516 346.916609066846L784.7819174235516 346.916609066846Q799.7173810475888 346.916609066846 806.8624330899524 356.62005071147513Q814.007485132316 366.3465409110797 814.007485132316 389.0724161167908L814.007485132316 389.0724161167908Q814.007485132316 399.53646007560707 812.2557949541881 407.48821154210844Q810.5041047760603 415.4630115635852 806.4475591003958 420.85637342782087Q802.3910134247313 426.2497352920566 795.4994954870969 428.99251333412514Q788.6079775494624 431.71224282121835 778.143933590646 431.71224282121835L778.143933590646 431.71224282121835Q773.9951936950802 431.71224282121835 769.201094260204 431.38956305156324Q764.3839462703525 431.06688328190813 759.4054583956733 430.306280967721Q754.4269705209942 429.5687272085093 749.7020167510441 428.48544512466714Q744.9540144261186 427.40216304082486 740.9896629703558 425.9040069674261L740.9896629703558 425.9040069674261L752.2604063533098 416.2927595426984Q756.7548745735062 417.60652717629426 761.1341000188258 418.43627515540743Q765.5363740191208 419.2660231345206 769.7773081345881 419.51955723924965Q773.9951936950802 419.77309134397865 777.8212538209909 419.77309134397865L777.8212538209909 419.77309134397865Q785.6116654026647 419.6117514591511 790.3596677275902 416.77677919718104Q795.0846214975403 413.9648554901864 797.2281371102493 407.23467743737945Q799.3947012779338 400.52754793954784 799.3947012779338 389.0724161167908L799.3947012779338 389.0724161167908Q799.3947012779338 377.9630126186643 797.7352053197073 371.39417445068494Q796.075709361481 364.8483848376809 791.8347752460136 362.01341257571084Q787.6168896855215 359.2014888687162 779.8034295488725 359.2014888687162L779.8034295488725 359.2014888687162Q773.1654457159669 359.2014888687162 767.1958699773471 362.77401488989796Q761.2262942387273 366.3465409110797 753.4358826570534 372.4774565345271L753.4358826570534 372.4774565345271L752.4217462381373 363.02754899462695Q757.4002341128164 357.70333279531735 762.6322560922246 354.1308067741356Q767.8642780716327 350.5813293079292 773.5111740405974 348.7374449098999Q779.1580700095622 346.916609066846 784.7819174235516 346.916609066846ZM740.9896629703558 313.56535001749097L755.0953786152797 313.56535001749097L755.0953786152797 343.7589570352208Q755.0953786152797 348.9218333497028 754.8418445105508 353.2319131300963Q754.5883104058217 357.5419929104898 753.597222541881 362.01341257571084L753.597222541881 362.01341257571084L754.9109901754769 364.34131662822284L755.0953786152797 426.5724150617117L740.9896629703558 425.9040069674261L740.9896629703558 313.56535001749097ZM878.0594194088587 313.24267024783586L878.0594194088587 313.24267024783586Q885.3658113360498 313.24267024783586 890.5747847604825 313.56535001749097Q895.8068067398908 313.88802978714614 900.2090807401858 314.64863210133325Q904.6113547404807 315.3861858605449 909.2441142905293 316.56166216428863L909.2441142905293 316.56166216428863L907.7690067721057 327.6710656624152Q902.7905188974268 327.16399745295706 898.5495847819593 326.84131768330195Q894.308650666492 326.51863791364684 889.5145512316158 326.3342494738439Q884.6974032417643 326.17290958901634 878.0594194088587 326.17290958901634L878.0594194088587 326.17290958901634Q866.9269673557569 326.17290958901634 860.4733719626544 330.48298936940984Q853.9967280145763 334.8161177047787 851.2539499725078 344.9344333389645Q848.5111719304392 355.05274897315024 848.5111719304392 372.4774565345271L848.5111719304392 372.4774565345271Q848.5111719304392 389.902164095904 851.2539499725078 400.0204797300898Q853.9967280145763 410.1387953642756 860.4733719626544 414.47192369964444Q866.9269673557569 418.78200348003793 878.0594194088587 418.78200348003793L878.0594194088587 418.78200348003793Q888.6848032525027 418.78200348003793 895.8990009597923 418.3671294904813Q903.1131986670819 417.95225550092476 910.0738622696424 416.961167636984L910.0738622696424 416.961167636984L911.5720183430412 427.90923125028297Q904.4500148556531 429.89140697816447 896.890088823733 430.8133491771791Q889.3301627918129 431.71224282121835 878.0594194088587 431.71224282121835L878.0594194088587 431.71224282121835Q861.6257997114226 431.71224282121835 851.7610181819659 425.9962011873276Q841.8731880975338 420.2801595534367 837.4709140972388 407.3268716572809Q833.0916886519192 394.3735837611251 833.0916886519192 372.4774565345271L833.0916886519192 372.4774565345271Q833.0916886519192 350.5813293079292 837.4709140972388 337.6280414117734Q841.8731880975338 324.6747535156175 851.7610181819659 318.9587118817267Q861.6257997114226 313.24267024783586 878.0594194088587 313.24267024783586ZM968.6632890170235 346.916609066846L968.6632890170235 346.916609066846Q977.6291769024409 346.916609066846 983.8522867457898 349.3367073392594Q990.0753965891387 351.73375705669747 993.2330486207638 357.38065302566224Q996.3676520974136 363.02754899462695 996.3676520974136 372.8001363041823L996.3676520974136 372.8001363041823L996.3676520974136 429.7300670933369L985.2582485992871 429.7300670933369L983.0916844316027 412.14401964713244L982.100596567662 410.3231838040785L982.100596567662 372.8001363041823Q982.100596567662 365.33240449216356 978.7124589862831 362.10560679561235Q975.3012728499289 358.8788090990611 965.6669768702259 358.8788090990611L965.6669768702259 358.8788090990611Q959.3747213619508 358.8788090990611 949.8326196021492 359.5241686383713Q940.2905178423476 360.1925767326569 931.001950187275 361.0223247117701L931.001950187275 361.0223247117701L929.6651339987038 350.5813293079292Q935.3120299676684 349.5671928890131 942.0191594655 348.7374449098999Q948.749337518307 347.9076969307867 955.7100011208677 347.42367727630403Q962.6937132784036 346.916609066846 968.6632890170235 346.916609066846ZM948.4266577486519 379.94518834654576L989.7296682645082 379.94518834654576L989.5683283796807 390.57057219018964L950.9159016859915 390.7319120750172Q945.1076658321992 390.89325195984475 942.7797617796871 393.7973698867409Q940.4518577271751 396.7014878136371 940.4518577271751 401.84131557314373L940.4518577271751 401.84131557314373L940.4518577271751 407.0041918876258Q940.4518577271751 413.29644739590077 943.4481698739728 416.2005653227969Q946.421433465795 419.10468324969304 953.0594172987005 419.10468324969304L953.0594172987005 419.10468324969304Q957.7152254037245 419.10468324969304 963.5926069224429 417.3760416265406Q969.4930369961367 415.6243514484127 975.4626127347565 411.9826797623049Q981.4321884733763 408.31795952122167 986.4106763480554 402.6710635522569L986.4106763480554 402.6710635522569L986.4106763480554 413.13510751107316Q984.5898405050016 415.4630115635852 981.2017029236226 418.5284693753089Q977.7905167872685 421.5939271870326 973.0655630173185 424.49804511392875Q968.3406092473683 427.40216304082486 962.6015190585022 429.3151931037803Q956.8854774246113 431.2282231667357 950.2474935917057 431.2282231667357L950.2474935917057 431.2282231667357Q943.1024415493423 431.2282231667357 937.6399340201805 428.6467850094947Q932.1543779360434 426.08839540722903 929.0889201243197 421.0177133126484Q926.0234623125959 415.9470312180678 926.0234623125959 408.66368784585217L926.0234623125959 408.66368784585217L926.0234623125959 399.85913984526223Q926.0234623125959 390.4092323053621 931.9008438313142 385.1772103259539Q937.801273905008 379.94518834654576 948.4266577486519 379.94518834654576L948.4266577486519 379.94518834654576ZM1027.7367354188873 325.020481840248L1041.8424510638113 325.020481840248L1041.8424510638113 407.48821154210844Q1041.8424510638113 413.29644739590077 1044.3316950011508 415.7856913332403Q1046.8209389384904 418.2749352705799 1052.7905146771102 418.2749352705799L1052.7905146771102 418.2749352705799L1065.0753944789803 418.2749352705799L1066.7348904372068 429.06165899905125Q1064.0843066150396 429.7300670933369 1060.6039748137594 430.2371353027949Q1057.123643012479 430.72115495727763 1053.8046510960264 430.9746890620067Q1050.4856591795735 431.2282231667357 1048.4804348967168 431.2282231667357L1048.4804348967168 431.2282231667357Q1038.362119262531 431.2282231667357 1033.0609516181967 425.581327197771Q1027.7367354188873 419.9344312288062 1027.7367354188873 409.3090473851624L1027.7367354188873 409.3090473851624L1027.7367354188873 325.020481840248ZM1029.0735516074585 348.9218333497028L1067.5646384163201 348.9218333497028L1067.5646384163201 360.03123684782935L1013.1470001194803 360.03123684782935L1013.1470001194803 349.75158132881603L1029.0735516074585 348.9218333497028ZM1122.9964131320758 346.916609066846L1122.9964131320758 346.916609066846Q1131.9623010174932 346.916609066846 1138.1854108608422 349.3367073392594Q1144.408520704191 351.73375705669747 1147.5661727358163 357.38065302566224Q1150.700776212466 363.02754899462695 1150.700776212466 372.8001363041823L1150.700776212466 372.8001363041823L1150.700776212466 429.7300670933369L1139.5913727143397 429.7300670933369L1137.4248085466552 412.14401964713244L1136.4337206827145 410.3231838040785L1136.4337206827145 372.8001363041823Q1136.4337206827145 365.33240449216356 1133.0455831013355 362.10560679561235Q1129.6343969649813 358.8788090990611 1120.0001009852783 358.8788090990611L1120.0001009852783 358.8788090990611Q1113.7078454770033 358.8788090990611 1104.1657437172016 359.5241686383713Q1094.6236419574 360.1925767326569 1085.3350743023275 361.0223247117701L1085.3350743023275 361.0223247117701L1083.998258113756 350.5813293079292Q1089.6451540827209 349.5671928890131 1096.3522835805525 348.7374449098999Q1103.0824616333593 347.9076969307867 1110.04312523592 347.42367727630403Q1117.026837393456 346.916609066846 1122.9964131320758 346.916609066846ZM1102.7597818637043 379.94518834654576L1144.0627923795605 379.94518834654576L1143.9014524947331 390.57057219018964L1105.249025801044 390.7319120750172Q1099.4407899472517 390.89325195984475 1097.1128858947395 393.7973698867409Q1094.7849818422276 396.7014878136371 1094.7849818422276 401.84131557314373L1094.7849818422276 401.84131557314373L1094.7849818422276 407.0041918876258Q1094.7849818422276 413.29644739590077 1097.781293989025 416.2005653227969Q1100.7545575808474 419.10468324969304 1107.392541413753 419.10468324969304L1107.392541413753 419.10468324969304Q1112.0483495187768 419.10468324969304 1117.9257310374953 417.3760416265406Q1123.8261611111889 415.6243514484127 1129.795736849809 411.9826797623049Q1135.7653125884287 408.31795952122167 1140.7438004631078 402.6710635522569L1140.7438004631078 402.6710635522569L1140.7438004631078 413.13510751107316Q1138.9229646200538 415.4630115635852 1135.5348270386753 418.5284693753089Q1132.1236409023209 421.5939271870326 1127.398687132371 424.49804511392875Q1122.6737333624205 427.40216304082486 1116.9346431735544 429.3151931037803Q1111.2186015396637 431.2282231667357 1104.5806177067582 431.2282231667357L1104.5806177067582 431.2282231667357Q1097.4355656643947 431.2282231667357 1091.9730581352328 428.6467850094947Q1086.4875020510958 426.08839540722903 1083.422044239372 421.0177133126484Q1080.3565864276484 415.9470312180678 1080.3565864276484 408.66368784585217L1080.3565864276484 408.66368784585217L1080.3565864276484 399.85913984526223Q1080.3565864276484 390.4092323053621 1086.2339679463666 385.1772103259539Q1092.1343980200604 379.94518834654576 1102.7597818637043 379.94518834654576L1102.7597818637043 379.94518834654576ZM1176.1002837953197 313.56535001749097L1190.2059994402439 313.56535001749097L1190.0446595554163 407.48821154210844Q1190.0446595554163 412.81242774141805 1192.9487774823124 415.53215722851127Q1195.8528954092085 418.2749352705799 1201.1540630535428 418.2749352705799L1201.1540630535428 418.2749352705799L1208.967523190192 418.2749352705799L1210.6270191484182 429.06165899905125Q1209.1288630750196 429.7300670933369 1206.386085032951 430.2371353027949Q1203.6433069908824 430.72115495727763 1200.739189063986 430.9746890620067Q1197.83507113709 431.2282231667357 1195.8528954092085 431.2282231667357L1195.8528954092085 431.2282231667357Q1186.887007523791 431.2282231667357 1181.4936456595553 425.9040069674261Q1176.1002837953197 420.60283932309187 1176.1002837953197 410.6458635737336L1176.1002837953197 410.6458635737336L1176.1002837953197 313.56535001749097ZM1259.3977614762935 346.916609066846L1259.3977614762935 346.916609066846Q1273.34213723639 346.916609066846 1281.7318112474231 351.06534896241186Q1290.0984367034812 355.2140888579778 1293.7631569445643 364.59485073295184Q1297.4048286306722 373.97561260792594 1297.4048286306722 389.395095886446L1297.4048286306722 389.395095886446Q1297.4048286306722 404.83762771994134 1293.7631569445643 414.2183895949154Q1290.0984367034812 423.5991514698895 1281.7318112474231 427.74789136545536Q1273.34213723639 431.8966312610213 1259.3977614762935 431.8966312610213L1259.3977614762935 431.8966312610213Q1245.6377741559995 431.8966312610213 1237.2481001449664 427.74789136545536Q1228.8814746889084 423.5991514698895 1225.1476087828992 414.2183895949154Q1221.4137428768897 404.83762771994134 1221.4137428768897 389.395095886446L1221.4137428768897 389.395095886446Q1221.4137428768897 373.97561260792594 1225.1476087828992 364.59485073295184Q1228.8814746889084 355.2140888579778 1237.2481001449664 351.06534896241186Q1245.6377741559995 346.916609066846 1259.3977614762935 346.916609066846ZM1259.3977614762935 358.8788090990611L1259.3977614762935 358.8788090990611Q1250.6162620306786 358.8788090990611 1245.5455799360982 361.59853858615423Q1240.4979463964928 364.34131662822284 1238.3313822288085 370.97930046112833Q1236.1648180611242 377.6172842940338 1236.1648180611242 389.395095886446L1236.1648180611242 389.395095886446Q1236.1648180611242 401.19595603383345 1238.3313822288085 407.83393986673894Q1240.4979463964928 414.47192369964444 1245.5455799360982 417.19165318673765Q1250.6162620306786 419.9344312288062 1259.3977614762935 419.9344312288062L1259.3977614762935 419.9344312288062Q1268.202309476883 419.9344312288062 1273.34213723639 417.19165318673765Q1278.4819649958968 414.47192369964444 1280.648529163581 407.83393986673894Q1282.8150933312654 401.19595603383345 1282.8150933312654 389.395095886446L1282.8150933312654 389.395095886446Q1282.8150933312654 377.6172842940338 1280.648529163581 370.97930046112833Q1278.4819649958968 364.34131662822284 1273.34213723639 361.59853858615423Q1268.202309476883 358.8788090990611 1259.3977614762935 358.8788090990611ZM1351.4997871578569 346.916609066846L1351.4997871578569 346.916609066846Q1364.4530750540125 346.916609066846 1372.013001085933 349.5671928890131Q1379.5498785628774 352.2408252661556 1382.7997248144043 357.8646726801449Q1386.0265225109556 363.5115686491097 1386.0265225109556 372.6387964193547L1386.0265225109556 372.6387964193547Q1386.0265225109556 381.4433444199446 1382.7997248144043 387.1593860538354Q1379.5498785628774 392.89847624270163 1371.9208068660314 395.61820572979485Q1364.291735169185 398.3609837718634 1351.338447273029 398.3609837718634L1351.338447273029 398.3609837718634Q1338.408207931849 398.3609837718634 1330.8482818999287 395.61820572979485Q1323.2883558680087 392.89847624270163 1320.0615581714571 387.2515802737369Q1316.834760474906 381.60468430477215 1316.834760474906 372.8001363041823L1316.834760474906 372.8001363041823Q1316.834760474906 363.67290853393723 1320.0615581714571 357.9568669000464Q1323.2883558680087 352.2408252661556 1330.9404761198302 349.5671928890131Q1338.5695478166763 346.916609066846 1351.4997871578569 346.916609066846ZM1351.338447273029 357.70333279531735L1351.338447273029 357.70333279531735Q1339.2379559109618 357.70333279531735 1334.4899535860363 361.11451893167157Q1329.7649998160864 364.5026565130504 1329.7649998160864 372.6387964193547L1329.7649998160864 372.6387964193547Q1329.7649998160864 380.61359644083143 1334.4899535860363 384.0939282421117Q1339.2379559109618 387.57426004339203 1351.338447273029 387.57426004339203L1351.338447273029 387.57426004339203Q1363.6233270748994 387.57426004339203 1368.2791351799233 384.0939282421117Q1372.9118947299721 380.61359644083143 1372.9118947299721 372.6387964193547L1372.9118947299721 372.6387964193547Q1372.9118947299721 364.5026565130504 1368.2791351799233 361.11451893167157Q1363.6233270748994 357.70333279531735 1351.338447273029 357.70333279531735ZM1368.2791351799233 348.9218333497028L1395.4764300508555 348.9218333497028L1394.6466820717424 356.71224493137663L1374.0873710337157 358.37174088960296L1368.2791351799233 348.9218333497028ZM1328.612572067318 393.0598161275292L1328.612572067318 393.0598161275292L1336.7487119736224 394.2122438762975Q1333.9137397116524 396.7014878136371 1332.9226518477117 400.27401383481885Q1331.931563983771 403.84653985600056 1333.4988657220958 406.81980344782284Q1335.0892160153962 409.81611559462044 1340.2290437749027 410.6458635737336L1340.2290437749027 410.6458635737336L1370.4226507926326 415.4630115635852Q1381.8777826153896 417.12250752181154 1386.3492022806106 422.58501505097337Q1390.843670500807 428.0705711351105 1390.843670500807 438.1888867692963L1390.843670500807 438.1888867692963Q1390.843670500807 447.66184286417183 1387.2711444796253 453.1243503933336Q1383.6986184584434 458.6099064774708 1375.239798782484 460.93781052998276Q1366.7809791065247 463.2426660275194 1352.32953513697 463.2426660275194L1352.32953513697 463.2426660275194Q1341.381471523671 463.2426660275194 1333.9137397116524 461.99804405884964Q1326.4460078996337 460.75342209017987 1321.8823940145112 457.8493041632837Q1317.3187801293886 454.94518623638754 1315.336604401507 450.31242668633894Q1313.3313801186505 445.65661858131494 1313.3313801186505 438.69595497875434L1313.3313801186505 438.69595497875434Q1313.3313801186505 433.37173877944474 1314.9217304119506 429.82226131323836Q1316.4890321502753 426.2497352920566 1319.9002182866298 423.41476303008653Q1323.2883558680087 420.60283932309187 1328.7739119521457 417.95225550092476L1328.7739119521457 417.95225550092476L1338.730887701504 412.46669941678755L1345.2075316495818 414.79460346929955L1337.0713917432777 420.925519092747Q1333.7523998268248 423.41476303008653 1331.5166899942142 425.8348613025Q1329.2809801616038 428.2319110199381 1328.1976980777617 430.9746890620067Q1327.1144159939192 433.71746710407524 1327.1144159939192 437.5204786750107L1327.1144159939192 437.5204786750107Q1327.1144159939192 443.1673746439754 1329.2809801616038 446.16368679077306Q1331.4244957743126 449.1369503825953 1336.91005185845 450.2202324664375Q1342.3725593876118 451.30351455027966 1352.1681952521426 451.30351455027966L1352.1681952521426 451.30351455027966Q1361.9638311166732 451.30351455027966 1367.3571929809088 450.1510868015114Q1372.7505548451445 448.9756104977677 1374.9171190128288 446.00234690594544Q1377.0606346255381 443.00603475914784 1377.0606346255381 437.5204786750107L1377.0606346255381 437.5204786750107Q1377.0606346255381 433.37173877944474 1375.9773525416958 431.2282231667357Q1374.9171190128288 429.06165899905125 1371.9208068660314 427.90923125028297Q1368.9244947192337 426.73375494653925 1363.1162588654415 425.9040069674261L1363.1162588654415 425.9040069674261L1334.07507959648 421.9396555116631Q1328.9352518369733 421.2712474173775 1325.8697940252496 418.6206635952104Q1322.8043362135259 415.9470312180678 1321.628859909782 412.30535953196Q1320.4764321610137 408.66368784585217 1320.983500370472 404.9298219398428Q1321.4675200249546 401.19595603383345 1323.4727443078114 397.94610978230685Q1325.454920035693 394.7193120857556 1328.612572067318 393.0598161275292Z " fill="#243665" transform="matrix(0.6270259833076784,0,0,0.6270259833076786,0,56.56175710146674)"/></g></svg>